<svg xmlns="http://www.w3.org/2000/svg" width="162" height="228" fill="none" viewBox="0 0 162 228">
  <path fill="#FDDB87" d="m30 19.682 34-5.636L91.5 7 125 22.03l20 3.758c1.5 9.394 8 19 8 43.212H8l22-49.318Z"/>
  <path stroke="#FDDB87" stroke-width="6" d="M18.5 63.185 13 57.738v-9.984h8.5V34.139H33l2.5-4.085v-4.992l3-6.354 6.5-1.362 1.5 3.177 5.5 4.538 5.5 2.724 3-2.724 2-4.538h3v-3.177l5 3.177H75v-3.177l3-2.723v-3.177l6-3.177L88 6h4l1.648 2.27c.196 2.117 2.247 4.538 3.352 4.538s2.333 3.63 3.5 4.538H112l2.5 3.177h2.5l2.5 4.538H133v-4.538l6.5 1.816 4 2.723v4.992l2 4.085 4 2.269-4 3.63L147 41.4v4.085l2.5 2.269 2 1.815v5.447l2.5 2.723L149.5 65"/>
  <path stroke="#EFBA5B" stroke-width="6" d="M14 66c-5-3.5-8.2-16.4-3-18 6.5-2 8 3 8-3.5s-2-9 6-10.5c6.898-1.293 8-4 9-10s-1-9 5-11c5.367-1.79 18 7 19 9.5.673 1.683-.34-3.263 3.5-5 1.865-.843 13.5-4 10 2.5"/>
  <path stroke="#000" stroke-width="6" d="M10.202 69c-2.209-.84-6.737-4.837-7.179-14.107-.552-11.588 8.836-15.618 10.492-11.084 1.657 4.535-3.865-9.069 3.314-13.1 7.179-4.03 10.492-2.518 10.492-5.037 0-2.52 1.656-15.619 12.7-16.122 8.836-.403 11.597 4.03 15.462 6.045 3.866 0 2.738-3.526 9.388-3.526 5.498 0 6.516.806 8.283 2.015C75.363 15.595 76.996 3 88.592 3c10.492 0 11.62 7.053 14.933 11.084 3.314 4.03 8.283-1.511 13.253 1.511 4.97 3.023 4.418 6.55 8.283 7.558 3.866 1.007 3.866-6.55 12.701-5.038 8.835 1.511 13.253 6.55 13.253 11.084s7.253 8.176.742 13.218c-3.969 3.072 3.979 0 6.511 9.625 3.313 12.595-5.596 14.117-7.253 15.125"/>
  <path stroke="#ED3124" stroke-width="21" d="m145.467 69.832-12 151"/>
  <path stroke="#DDDBC7" stroke-width="21" d="m119.492 68.401-6 157"/>
  <path stroke="#CEC9A7" stroke-width="18" d="m71 67.943 1 157"/>
  <path stroke="#DDDBC7" stroke-width="11" d="m74.489 67.648 10 156"/>
  <path stroke="#ED3124" stroke-width="20" d="m94.998 67.191-3 157"/>
  <path stroke="#E00E0E" stroke-width="23" d="m45.5 67.5 5 153.5"/>
  <path stroke="#CEC9A7" stroke-width="21" d="M17.5 68 31 219.5"/>
  <path stroke="#000" stroke-width="6" d="m132.029 78.61-9 144.5m9-144.5c0-17.97-25.5-16.5-25.438-.044l-.062.044m25.5 0 .02-.014c0-13.486 24.971-17.195 24.479.014-.501 17.5-11.1 131.5-13.5 139.5-3 10-113 6-121.5 0-6.8-4.8-13.5-122.5-14.5-139.5s25-16.5 25 0m74.501 0-5.257 145.55m5.257-145.55c0-19.231-23.241-16-23.241-3.188-.17.121-.26.188-.26.188m0 0-1 148m1-148c-.406-13.984-22.915-12.5-22.915.445l-.084.055m0 0 2 147m-2-147c-.5-14-28-14-28 2.5m0 0c-.5 9 9 143.183 9 143.183"/>
</svg>
